<?xml version="1.0" standalone="no"?><!DOCTYPE svg PUBLIC "-//W3C//DTD SVG 1.1//EN" "http://www.w3.org/Graphics/SVG/1.1/DTD/svg11.dtd"><svg xmlns:xlink="http://www.w3.org/1999/xlink" version="1.1" style="font-family:'lucida grande', 'lucida sans unicode', arial, helvetica, sans-serif;font-size:12px;" xmlns="http://www.w3.org/2000/svg" width="600" height="400"><desc>Created with Highcharts 4.2.7</desc><defs><radialGradient cx="0.5" cy="0.3" r="0.7" id="highcharts-336"><stop offset="0" stop-color="#50B432" stop-opacity="1"></stop><stop offset="1" stop-color="rgb(4,104,0)" stop-opacity="1"></stop></radialGradient><radialGradient cx="0.5" cy="0.3" r="0.7" id="highcharts-337"><stop offset="0" stop-color="#ED561B" stop-opacity="1"></stop><stop offset="1" stop-color="rgb(161,10,0)" stop-opacity="1"></stop></radialGradient><radialGradient cx="0.5" cy="0.3" r="0.7" id="highcharts-338"><stop offset="0" stop-color="#DDDF00" stop-opacity="1"></stop><stop offset="1" stop-color="rgb(145,147,0)" stop-opacity="1"></stop></radialGradient><radialGradient cx="0.5" cy="0.3" r="0.7" id="highcharts-339"><stop offset="0" stop-color="#24CBE5" stop-opacity="1"></stop><stop offset="1" stop-color="rgb(0,127,153)" stop-opacity="1"></stop></radialGradient><radialGradient cx="0.5" cy="0.3" r="0.7" id="highcharts-340"><stop offset="0" stop-color="#64E572" stop-opacity="1"></stop><stop offset="1" stop-color="rgb(24,153,38)" stop-opacity="1"></stop></radialGradient><radialGradient cx="0.5" cy="0.3" r="0.7" id="highcharts-341"><stop offset="0" stop-color="#FF9655" stop-opacity="1"></stop><stop offset="1" stop-color="rgb(179,74,9)" stop-opacity="1"></stop></radialGradient><clipPath id="highcharts-342"><rect x="0" y="0" width="600" height="400"></rect></clipPath><radialGradient cx="0.5" cy="0.3" r="0.7" id="highcharts-343"><stop offset="0" stop-color="rgb(55,155,25)" stop-opacity="1"></stop><stop offset="1" stop-color="rgb(0,79,0)" stop-opacity="1"></stop></radialGradient><radialGradient cx="321" cy="100.8" r="109.19999999999999" id="highcharts-344" gradientUnits="userSpaceOnUse"><stop offset="0" stop-color="#50B432" stop-opacity="1"></stop><stop offset="1" stop-color="rgb(4,104,0)" stop-opacity="1"></stop></radialGradient><radialGradient cx="0.5" cy="0.3" r="0.7" id="highcharts-345"><stop offset="0" stop-color="rgb(212,61,2)" stop-opacity="1"></stop><stop offset="1" stop-color="rgb(136,0,0)" stop-opacity="1"></stop></radialGradient><radialGradient cx="321" cy="100.8" r="109.19999999999999" id="highcharts-346" gradientUnits="userSpaceOnUse"><stop offset="0" stop-color="#ED561B" stop-opacity="1"></stop><stop offset="1" stop-color="rgb(161,10,0)" stop-opacity="1"></stop></radialGradient><radialGradient cx="0.5" cy="0.3" r="0.7" id="highcharts-347"><stop offset="0" stop-color="rgb(196,198,0)" stop-opacity="1"></stop><stop offset="1" stop-color="rgb(120,122,0)" stop-opacity="1"></stop></radialGradient><radialGradient cx="321" cy="100.8" r="109.19999999999999" id="highcharts-348" gradientUnits="userSpaceOnUse"><stop offset="0" stop-color="#DDDF00" stop-opacity="1"></stop><stop offset="1" stop-color="rgb(145,147,0)" stop-opacity="1"></stop></radialGradient><radialGradient cx="0.5" cy="0.3" r="0.7" id="highcharts-349"><stop offset="0" stop-color="rgb(11,178,204)" stop-opacity="1"></stop><stop offset="1" stop-color="rgb(0,102,128)" stop-opacity="1"></stop></radialGradient><radialGradient cx="321" cy="100.8" r="109.19999999999999" id="highcharts-350" gradientUnits="userSpaceOnUse"><stop offset="0" stop-color="#24CBE5" stop-opacity="1"></stop><stop offset="1" stop-color="rgb(0,127,153)" stop-opacity="1"></stop></radialGradient><radialGradient cx="0.5" cy="0.3" r="0.7" id="highcharts-351"><stop offset="0" stop-color="rgb(75,204,89)" stop-opacity="1"></stop><stop offset="1" stop-color="rgb(0,128,13)" stop-opacity="1"></stop></radialGradient><radialGradient cx="321" cy="100.8" r="109.19999999999999" id="highcharts-352" gradientUnits="userSpaceOnUse"><stop offset="0" stop-color="#64E572" stop-opacity="1"></stop><stop offset="1" stop-color="rgb(24,153,38)" stop-opacity="1"></stop></radialGradient><radialGradient cx="0.5" cy="0.3" r="0.7" id="highcharts-353"><stop offset="0" stop-color="rgb(230,125,60)" stop-opacity="1"></stop><stop offset="1" stop-color="rgb(154,49,0)" stop-opacity="1"></stop></radialGradient><radialGradient cx="321" cy="100.8" r="109.19999999999999" id="highcharts-354" gradientUnits="userSpaceOnUse"><stop offset="0" stop-color="#FF9655" stop-opacity="1"></stop><stop offset="1" stop-color="rgb(179,74,9)" stop-opacity="1"></stop></radialGradient></defs><rect x="10" y="60" width="580" height="264" fill="#27068f"></rect><rect x="10" y="60" width="580" height="264" stroke="#000000" stroke-width="2" fill="none"></rect><g class="highcharts-series-group"><g class="highcharts-series highcharts-series-0" transform="translate(10,60) scale(1 1)"><path fill="url(#highcharts-343)" d="M 345.0756584048829 79.53876348973753 L 345.0756584048829 87.49371477808619 L 321 139.95495128834867 L 321 132 Z" transform="translate(0,0)" visibility="visible"></path><path fill="url(#highcharts-353)" d="M 296.8796342610348 79.549032627517 L 296.8796342610348 87.50398391586565 L 321 139.95495128834867 L 321 132 Z" transform="translate(0,0)" visibility="visible"></path><path fill="url(#highcharts-343)" d="M 320.9841134901118 76.84567221142657 L 320.9841134901118 84.80062349977523 L 321 139.95495128834867 L 321 132 Z" transform="translate(0,0)" visibility="visible"></path><path fill="url(#highcharts-345)" d="M 366.87676414942615 87.39438089669684 L 366.87676414942615 95.3493321850455 L 321 139.95495128834867 L 321 132 Z" transform="translate(0,0)" visibility="visible"></path><path fill="url(#highcharts-353)" d="M 320.96887953081983 76.84567545732975 L 320.96887953081983 84.8006267456784 L 321 139.95495128834867 L 321 132 Z" transform="translate(0,0)" visibility="visible"></path><path fill="url(#highcharts-351)" d="M 257.90924458924195 164.43113150739507 L 257.90924458924195 172.38608279574373 L 321 139.95495128834867 L 321 132 Z" transform="translate(-7,-2)" visibility="visible"></path><path fill="url(#highcharts-343)" d="M 320.9841134901118 76.84567221142657 C 329.5951134010929 76.84443206635801 336.8851188582579 77.65935075193775 345.0756584048829 79.53876348973753 L 345.0756584048829 87.49371477808619 C 336.8851188582579 85.6143020402864 329.5951134010929 84.79938335470666 320.9841134901118 84.80062349977523 Z" transform="translate(0,0)" visibility="visible"></path><path fill="url(#highcharts-343)" d="M 321 132 C 321 132 321 132 321 132 L 321 139.95495128834867 C 321 139.95495128834867 321 139.95495128834867 321 139.95495128834867 Z" transform="translate(0,0)" visibility="visible"></path><path fill="url(#highcharts-353)" d="M 296.8796342610348 79.549032627517 C 305.068570532848 77.66612991109506 312.35788012660714 76.8481048075556 320.96887953081983 76.84567545732975 L 320.96887953081983 84.8006267456784 C 312.35788012660714 84.80305609590425 305.068570532848 85.62108119944371 296.8796342610348 87.50398391586565 Z" transform="translate(0,0)" visibility="visible"></path><path fill="url(#highcharts-353)" d="M 321 132 C 321 132 321 132 321 132 L 321 139.95495128834867 C 321 139.95495128834867 321 139.95495128834867 321 139.95495128834867 Z" transform="translate(0,0)" visibility="visible"></path><path fill="url(#highcharts-345)" d="M 345.07640031760087 79.53893373297379 L 345.07640031760087 87.49388502132244 L 321 139.95495128834867 L 321 132 Z" transform="translate(0,0)" visibility="visible"></path><path fill="url(#highcharts-347)" d="M 320.9848934900964 187.15432789815029 L 320.9848934900964 195.10927918649895 L 321 139.95495128834867 L 321 132 Z" transform="translate(0,0)" visibility="visible"></path><path fill="url(#highcharts-345)" d="M 345.07640031760087 79.53893373297379 C 353.2929985518491 81.42439015249947 359.89050791711406 83.80170764274007 366.87676414942615 87.39438089669684 L 366.87676414942615 95.3493321850455 C 359.89050791711406 91.75665893108872 353.2929985518491 89.37934144084812 345.07640031760087 87.49388502132244 Z" transform="translate(0,0)" visibility="visible"></path><path fill="url(#highcharts-345)" d="M 321 132 C 321 132 321 132 321 132 L 321 139.95495128834867 C 321 139.95495128834867 321 139.95495128834867 321 139.95495128834867 Z" transform="translate(0,0)" visibility="visible"></path><path fill="url(#highcharts-351)" d="M 296.8788924935467 79.54920318688131 L 296.8788924935467 87.50415447522997 L 321 139.95495128834867 L 321 132 Z" transform="translate(-7,-2)" visibility="visible"></path><path fill="url(#highcharts-349)" d="M 320.9841134901118 187.15432778857343 L 320.9841134901118 195.1092790769221 L 321 139.95495128834867 L 321 132 Z" transform="translate(0,0)" visibility="visible"></path><path fill="url(#highcharts-351)" d="M 257.90924458924195 164.43113150739507 C 247.772708418677 154.57144276814174 243 144.189673695532 243 132 L 243 139.95495128834867 C 243 115.59088403873838 264.1118478563552 95.03861967295185 296.8788924935467 87.50415447522997 L 296.8788924935467 79.54920318688131 C 264.1118478563552 87.0836683846032 243 107.63593275038973 243 132 L 243 139.95495128834867 C 243 152.14462498388068 247.772708418677 162.5263940564904 257.90924458924195 172.38608279574373 Z" transform="translate(-7,-2)" visibility="visible"></path><path fill="url(#highcharts-351)" d="M 321 132 C 321 132 321 132 321 132 C 321 132 321 132 321 132 L 321 139.95495128834867 C 321 139.95495128834867 321 139.95495128834867 321 139.95495128834867 C 321 139.95495128834867 321 139.95495128834867 321 139.95495128834867 Z" transform="translate(-7,-2)" visibility="visible"></path><path fill="url(#highcharts-349)" d="M 257.9097032378567 164.43157762478333 L 257.9097032378567 172.386528913132 L 321 139.95495128834867 L 321 132 Z" transform="translate(0,0)" visibility="visible"></path><path fill="url(#highcharts-347)" d="M 366.87739496584726 87.3947052966374 L 366.87739496584726 95.34965658498605 L 321 139.95495128834867 L 321 132 Z" transform="translate(0,0)" visibility="visible"></path><path fill="url(#highcharts-349)" d="M 320.9841134901118 187.15432778857343 C 295.1505652683688 187.1506072743751 273.1002197044651 179.2069025093209 257.9097032378567 164.43157762478333 L 257.9097032378567 172.386528913132 C 273.1002197044651 187.16185379766958 295.1505652683688 195.10555856272376 320.9841134901118 195.1092790769221 Z" transform="translate(0,0)" visibility="visible"></path><path fill="url(#highcharts-349)" d="M 321 132 C 321 132 321 132 321 132 L 321 139.95495128834867 C 321 139.95495128834867 321 139.95495128834867 321 139.95495128834867 Z" transform="translate(0,0)" visibility="visible"></path><path fill="url(#highcharts-347)" d="M 399 132 C 399 162.46089475659906 364.0782104868019 187.1543289325507 321 187.1543289325507 C 320.9946886206997 187.1543289325507 320.9902048692971 187.15432862553112 320.9848934900964 187.15432789815029 L 320.9848934900964 195.10927918649895 C 364.06310316898134 195.1151786455799 398.99165544209393 170.42652738925707 398.9999985371369 139.9656332039416 C 398.9999995658087 139.96187749169135 399 139.95870700066934 399 139.95495128834867 Z" transform="translate(0,0)" visibility="visible"></path><path fill="url(#highcharts-347)" d="M 321 132 C 321 132 321 132 321 132 C 321 132 321 132 321 132 L 321 139.95495128834867 C 321 139.95495128834867 321 139.95495128834867 321 139.95495128834867 C 321 139.95495128834867 321 139.95495128834867 321 139.95495128834867 Z" transform="translate(0,0)" visibility="visible"></path><g stroke="#FFFFFF" stroke-width="1" stroke-linejoin="round"><path fill="url(#highcharts-344)" d="M 320.9841134901118 76.84567221142657 C 329.5951134010929 76.84443206635801 336.8851188582579 77.65935075193775 345.0756584048829 79.53876348973753 L 321 132 C 321 132 321 132 321 132 Z" transform="translate(0,0)" visibility="visible"></path></g><g stroke="#FFFFFF" stroke-width="1" stroke-linejoin="round"><path fill="url(#highcharts-346)" d="M 345.07640031760087 79.53893373297379 C 353.2929985518491 81.42439015249947 359.89050791711406 83.80170764274007 366.87676414942615 87.39438089669684 L 321 132 C 321 132 321 132 321 132 Z" transform="translate(0,0)" visibility="visible"></path></g><g stroke="#FFFFFF" stroke-width="1" stroke-linejoin="round"><path fill="url(#highcharts-348)" d="M 366.87739496584726 87.3947052966374 C 401.716297210622 105.31094247306818 409.4187983247456 139.80539305714873 384.0814127231441 164.44021708352417 C 368.88356434384616 179.2166555957863 346.8240273867648 187.1578665065151 320.9848934900964 187.15432789815029 L 321 132 C 321 132 321 132 321 132 C 321 132 321 132 321 132 Z" transform="translate(0,0)" visibility="visible"></path></g><g stroke="#FFFFFF" stroke-width="1" stroke-linejoin="round"><path fill="url(#highcharts-350)" d="M 320.9841134901118 187.15432778857343 C 295.1505652683688 187.1506072743751 273.1002197044651 179.2069025093209 257.9097032378567 164.43157762478333 L 321 132 C 321 132 321 132 321 132 Z" transform="translate(0,0)" visibility="visible"></path></g><g stroke="#FFFFFF" stroke-width="1" stroke-linejoin="round"><path fill="url(#highcharts-352)" d="M 257.90924458924195 164.43113150739507 C 232.57895526400642 139.7926589345562 240.29139191047022 105.29931837016238 275.1354539791365 87.38809901887113 C 282.10502964212463 83.80546280845469 288.6846710204989 81.43338521167792 296.8788924935467 79.54920318688131 L 321 132 C 321 132 321 132 321 132 C 321 132 321 132 321 132 Z" transform="translate(-7,-2)" visibility="visible"></path></g><g stroke="#FFFFFF" stroke-width="1" stroke-linejoin="round"><path fill="url(#highcharts-354)" d="M 296.8796342610348 79.549032627517 C 305.068570532848 77.66612991109506 312.35788012660714 76.8481048075556 320.96887953081983 76.84567545732975 L 321 132 C 321 132 321 132 321 132 Z" transform="translate(0,0)" visibility="visible"></path></g></g><g class="highcharts-markers highcharts-series-0" transform="translate(10,60) scale(1 1)"></g></g><text x="300" text-anchor="middle" class="highcharts-title" style="color:#ffffff;font-size:16px;font-family:'times new roman', sans-serif;fill:#ffffff;width:536px;" y="22"><tspan>Tokenomics</tspan></text><text x="300" text-anchor="middle" class="highcharts-subtitle" style="color:#ffffff;font-size:16px;font-family:'times new roman', sans-serif;fill:#ffffff;width:536px;" y="44"><tspan>Digital META DEV</tspan></text><g class="highcharts-data-labels highcharts-series-0" transform="translate(10,60) scale(1 1)" opacity="1"><path fill="none" d="M 393.7522057233623 47.89507374939802 C 388.7522057233623 47.89507374939802 336.64344650402313 55.79658047415913 334.9226673885806 66.66115222070565 L 333.201888273138 77.52572396725216" stroke="url(#highcharts-336)" stroke-width="1"></path><path fill="none" d="M 418.34717104492154 76 C 413.34717104492154 76 366.39904997395473 63.25439388331003 361.4051544768197 73.05546564938206 L 356.41125897968465 82.85653741545408" stroke="url(#highcharts-337)" stroke-width="1"></path><path fill="none" d="M 430.74710429449993 158.30673187450614 C 425.74710429449993 158.30673187450614 416.1056516295153 155.83459591950654 405.64402995026865 152.43540898138212 L 395.182408271022 149.0362220432577" stroke="url(#highcharts-338)" stroke-width="1"></path><path fill="none" d="M 239.14081835888007 207.87269731238854 C 244.14081835888007 207.87269731238854 275.60095002604527 200.7446451188816 280.5948455231803 190.94357335280955 L 285.58874102031535 181.1425015867375" stroke="url(#highcharts-339)" stroke-width="1"></path><path fill="none" d="M 211.256130470583 105.6803914161994 C 216.256130470583 105.6803914161994 225.89434837048464 108.15252737119899 236.35597004973133 111.5517143093234 L 246.81759172897802 114.95090124744782" stroke="url(#highcharts-340)" stroke-width="1"></path><path fill="none" d="M 248.2504238474388 47.89295552007363 C 253.2504238474388 47.89295552007363 305.35655349597687 55.79446224483472 307.0773326114194 66.65903399138124 L 308.798111726862 77.52360573792775" stroke="url(#highcharts-341)" stroke-width="1"></path><g style="cursor:pointer;" transform="translate(399,38)"><text x="5" style="font-size:14px;font-weight:bold;font-family:'arial', sans-serif;color:#000;text-shadow:none;fill:#000;text-rendering:geometricprecision;" y="19"><tspan>Developers: 5 % DMT</tspan></text></g><g style="cursor:pointer;" transform="translate(423,66)"><text x="5" style="font-size:14px;font-weight:bold;font-family:'arial', sans-serif;color:#000;text-shadow:none;fill:#000;text-rendering:geometricprecision;" y="19"><tspan>Airdrop: 5 % DMT</tspan></text></g><g style="cursor:pointer;" transform="translate(436,148)"><text x="5" style="font-size:14px;font-weight:bold;font-family:'arial', sans-serif;color:#000;text-shadow:none;fill:#000;text-rendering:geometricprecision;" y="19"><tspan>Liquidity: 40 % DMT</tspan></text></g><g style="cursor:pointer;" transform="translate(27,198)"><text x="5" style="font-size:14px;font-weight:bold;font-family:'arial', sans-serif;color:#000;text-shadow:none;fill:#000;text-rendering:geometricprecision;" y="19"><tspan>Reward Marketing: 15 % DMT</tspan></text></g><g style="cursor:pointer;" transform="translate(18,96)"><text x="5" style="font-size:14px;font-weight:bold;font-family:'arial', sans-serif;color:#000;text-shadow:none;fill:#000;text-rendering:geometricprecision;" y="19"><tspan>Token Buyback: 30 % DMT</tspan></text></g><g style="cursor:pointer;" transform="translate(0,38)"><text x="5" style="font-size:14px;font-weight:bold;font-family:'arial', sans-serif;color:#000;text-shadow:none;fill:#000;text-rendering:geometricprecision;" y="19"><tspan>Automated add Liquidity: 5 % DMT</tspan></text></g></g><g class="highcharts-legend" transform="translate(23,336)"><g><g><g class="highcharts-legend-item" transform="translate(8,3)"><text x="21" style="color:#333;font-size:9pt;font-weight:normal;cursor:pointer;font-family:'lucida grande','lucida sans unicode',arial,helvetica,sans-serif;text-transform:none;fill:#333;" text-anchor="start" y="15">Developers</text><rect x="0" y="4" width="16" height="12" fill="url(#highcharts-336)"></rect></g><g class="highcharts-legend-item" transform="translate(113.67708587646484,3)"><text x="21" y="15" style="color:#333;font-size:9pt;font-weight:normal;cursor:pointer;font-family:'lucida grande','lucida sans unicode',arial,helvetica,sans-serif;text-transform:none;fill:#333;" text-anchor="start">Airdrop</text><rect x="0" y="4" width="16" height="12" fill="url(#highcharts-337)"></rect></g><g class="highcharts-legend-item" transform="translate(199.39583587646484,3)"><text x="21" y="15" style="color:#333;font-size:9pt;font-weight:normal;cursor:pointer;font-family:'lucida grande','lucida sans unicode',arial,helvetica,sans-serif;text-transform:none;fill:#333;" text-anchor="start">Liquidity</text><rect x="0" y="4" width="16" height="12" fill="url(#highcharts-338)"></rect></g><g class="highcharts-legend-item" transform="translate(290.90820693969727,3)"><text x="21" y="15" style="color:#333;font-size:9pt;font-weight:normal;cursor:pointer;font-family:'lucida grande','lucida sans unicode',arial,helvetica,sans-serif;text-transform:none;fill:#333;" text-anchor="start"><tspan>Reward Marketing</tspan></text><rect x="0" y="4" width="16" height="12" fill="url(#highcharts-339)"></rect></g><g class="highcharts-legend-item" transform="translate(436.78320693969727,3)"><text x="21" y="15" style="color:#333;font-size:9pt;font-weight:normal;cursor:pointer;font-family:'lucida grande','lucida sans unicode',arial,helvetica,sans-serif;text-transform:none;fill:#333;" text-anchor="start"><tspan>Token Buyback</tspan></text><rect x="0" y="4" width="16" height="12" fill="url(#highcharts-340)"></rect></g><g class="highcharts-legend-item" transform="translate(8,22)"><text x="21" y="15" style="color:#333;font-size:9pt;font-weight:normal;cursor:pointer;font-family:'lucida grande','lucida sans unicode',arial,helvetica,sans-serif;text-transform:none;fill:#333;" text-anchor="start"><tspan>Automated add Liquidity</tspan></text><rect x="0" y="4" width="16" height="12" fill="url(#highcharts-341)"></rect></g></g></g></g><g class="highcharts-tooltip" display="none" style="cursor:default;padding:0;pointer-events:none;white-space:nowrap;" transform="translate(0,0)"><path fill="none" d="M 3.5 0.5 L 13.5 0.5 C 16.5 0.5 16.5 0.5 16.5 3.5 L 16.5 13.5 C 16.5 16.5 16.5 16.5 13.5 16.5 L 3.5 16.5 C 0.5 16.5 0.5 16.5 0.5 13.5 L 0.5 3.5 C 0.5 0.5 0.5 0.5 3.5 0.5"  stroke="black" stroke-opacity="0.049999999999999996" stroke-width="5" transform="translate(1, 1)"></path><path fill="none" d="M 3.5 0.5 L 13.5 0.5 C 16.5 0.5 16.5 0.5 16.5 3.5 L 16.5 13.5 C 16.5 16.5 16.5 16.5 13.5 16.5 L 3.5 16.5 C 0.5 16.5 0.5 16.5 0.5 13.5 L 0.5 3.5 C 0.5 0.5 0.5 0.5 3.5 0.5"  stroke="black" stroke-opacity="0.09999999999999999" stroke-width="3" transform="translate(1, 1)"></path><path fill="none" d="M 3.5 0.5 L 13.5 0.5 C 16.5 0.5 16.5 0.5 16.5 3.5 L 16.5 13.5 C 16.5 16.5 16.5 16.5 13.5 16.5 L 3.5 16.5 C 0.5 16.5 0.5 16.5 0.5 13.5 L 0.5 3.5 C 0.5 0.5 0.5 0.5 3.5 0.5"  stroke="black" stroke-opacity="0.15" stroke-width="1" transform="translate(1, 1)"></path><path fill="rgb(249, 249, 249)" fill-opacity=" .85" d="M 3.5 0.5 L 13.5 0.5 C 16.5 0.5 16.5 0.5 16.5 3.5 L 16.5 13.5 C 16.5 16.5 16.5 16.5 13.5 16.5 L 3.5 16.5 C 0.5 16.5 0.5 16.5 0.5 13.5 L 0.5 3.5 C 0.5 0.5 0.5 0.5 3.5 0.5"></path><text x="8" style="font-size:12px;color:#000000;fill:#000000;" y="20"></text></g><text x="590" text-anchor="end" style="cursor:pointer;color:#909090;font-size:9px;fill:#909090;" y="395">meta-chart.com</text></svg>